<svg id="svg" version="1.1" xmlns="http://www.w3.org/2000/svg" xmlns:xlink="http://www.w3.org/1999/xlink" width="400" height="400" viewBox="0, 0, 400,400"><g id="svgg"><path id="path0" d="M40.000 185.000 L 40.000 250.000 100.000 250.000 L 160.000 250.000 160.000 247.500 L 160.000 245.000 102.500 245.000 L 45.000 245.000 45.000 185.000 L 45.000 125.000 200.000 125.000 L 355.000 125.000 355.000 185.000 L 355.000 245.000 297.500 245.000 L 240.000 245.000 240.000 247.500 L 240.000 250.000 300.000 250.000 L 360.000 250.000 360.000 185.000 L 360.000 120.000 200.000 120.000 L 40.000 120.000 40.000 185.000 M106.667 170.000 L 106.667 171.667 109.167 171.667 L 111.667 171.667 111.667 170.000 L 111.667 168.333 109.167 168.333 L 106.667 168.333 106.667 170.000 M141.333 180.500 L 141.333 192.667 143.667 192.667 L 146.000 192.667 146.042 187.500 C 146.065 184.658,146.114 182.221,146.152 182.083 C 146.190 181.946,146.338 181.420,146.480 180.916 C 147.059 178.868,149.910 177.655,151.432 178.809 C 152.283 179.454,152.412 180.450,152.468 186.833 L 152.518 192.500 154.959 192.599 L 157.401 192.697 157.274 185.599 C 157.138 178.041,156.984 177.276,155.281 175.689 C 153.475 174.007,149.224 174.407,147.310 176.439 L 146.000 177.830 146.000 173.082 L 146.000 168.333 143.667 168.333 L 141.333 168.333 141.333 180.500 M181.925 180.500 L 181.833 192.667 184.250 192.667 L 186.667 192.667 186.667 191.449 L 186.667 190.231 187.846 191.446 C 189.632 193.285,193.137 193.564,195.279 192.039 C 198.734 189.578,199.341 179.946,196.257 176.528 C 194.211 174.260,189.762 173.968,188.012 175.986 C 187.061 177.083,187.000 176.874,187.000 172.500 L 187.000 168.333 184.508 168.333 L 182.016 168.333 181.925 180.500 M84.444 170.690 C 78.530 173.213,77.296 185.758,82.466 190.783 C 85.170 193.411,91.460 193.786,94.026 191.474 C 94.316 191.213,94.652 191.000,94.774 191.000 C 96.226 191.000,96.667 189.588,96.667 184.940 L 96.667 180.333 92.167 180.333 C 88.803 180.333,87.660 180.439,87.640 180.750 C 87.625 180.979,87.585 181.804,87.551 182.583 L 87.489 184.000 89.744 184.000 L 92.000 184.000 92.000 185.972 L 92.000 187.945 90.514 188.512 C 86.427 190.073,84.253 187.227,84.444 180.567 C 84.553 176.749,85.174 175.150,86.841 174.391 C 88.783 173.506,90.194 173.973,90.899 175.733 C 91.458 177.130,91.576 177.156,94.500 176.528 C 94.867 176.449,95.411 176.373,95.711 176.359 C 97.151 176.291,94.325 171.711,92.212 170.688 C 90.341 169.783,86.569 169.784,84.444 170.690 M226.500 170.474 C 221.996 172.125,220.582 176.737,223.500 180.254 C 224.255 181.164,227.227 182.574,229.667 183.180 C 229.758 183.202,230.283 183.333,230.833 183.470 C 233.881 184.228,235.219 185.840,234.455 187.832 C 233.503 190.312,226.000 189.113,226.000 186.480 C 226.000 186.004,225.708 185.963,223.755 186.162 C 221.018 186.441,220.890 186.513,221.166 187.620 C 222.799 194.164,235.922 195.084,238.943 188.866 C 241.059 184.512,237.942 180.436,231.500 179.134 C 227.988 178.425,226.271 176.900,227.052 175.185 C 228.092 172.904,232.725 173.060,233.698 175.408 C 234.112 176.409,237.835 176.632,238.756 175.710 C 239.607 174.859,237.138 171.655,234.889 170.690 C 233.219 169.975,228.214 169.845,226.500 170.474 M125.046 172.196 C 124.654 173.221,124.333 174.271,124.333 174.530 C 124.333 174.870,123.886 175.000,122.712 175.000 L 121.091 175.000 121.134 176.583 L 121.177 178.167 122.589 178.269 L 124.000 178.372 124.001 183.936 C 124.003 192.108,124.949 193.206,131.757 192.930 C 135.736 192.769,135.898 192.683,135.844 190.749 L 135.810 189.508 132.668 189.504 C 129.653 189.500,129.508 189.466,129.101 188.667 C 128.507 187.501,128.492 178.346,129.083 178.302 C 129.313 178.285,130.700 178.247,132.167 178.219 L 134.833 178.167 134.935 176.583 L 135.037 175.000 131.852 175.000 L 128.667 175.000 128.667 172.667 L 128.667 170.333 127.213 170.333 L 125.759 170.333 125.046 172.196 M247.046 172.196 C 246.654 173.221,246.333 174.271,246.333 174.530 C 246.333 174.870,245.886 175.000,244.712 175.000 L 243.091 175.000 243.134 176.583 L 243.177 178.167 244.589 178.269 L 246.000 178.372 246.001 183.936 C 246.003 192.108,246.949 193.206,253.757 192.930 C 257.736 192.769,257.898 192.683,257.844 190.749 L 257.810 189.508 254.668 189.504 C 251.653 189.500,251.508 189.466,251.101 188.667 C 250.507 187.501,250.492 178.346,251.083 178.302 C 251.313 178.285,252.700 178.247,254.167 178.219 L 256.833 178.167 256.935 176.583 L 257.037 175.000 253.852 175.000 L 250.667 175.000 250.667 172.667 L 250.667 170.333 249.213 170.333 L 247.759 170.333 247.046 172.196 M287.713 172.196 C 287.321 173.221,287.000 174.271,287.000 174.530 C 287.000 174.870,286.552 175.000,285.379 175.000 L 283.758 175.000 283.801 176.583 L 283.844 178.167 285.255 178.269 L 286.667 178.372 286.668 183.936 C 286.670 192.108,287.616 193.206,294.423 192.930 C 298.402 192.769,298.565 192.683,298.511 190.749 L 298.476 189.508 295.334 189.504 C 292.320 189.500,292.175 189.466,291.768 188.667 C 291.174 187.501,291.158 178.346,291.750 178.302 C 291.979 178.285,293.367 178.247,294.833 178.219 L 297.500 178.167 297.602 176.583 L 297.703 175.000 294.518 175.000 L 291.333 175.000 291.333 172.667 L 291.333 170.333 289.880 170.333 L 288.426 170.333 287.713 172.196 M266.943 175.279 C 265.287 176.058,263.333 178.546,263.333 179.874 C 263.333 179.943,264.542 180.000,266.020 180.000 C 267.517 180.000,268.624 179.868,268.521 179.701 C 268.152 179.103,269.507 177.942,270.638 177.887 C 271.971 177.823,272.910 178.855,273.212 180.718 L 273.407 181.919 270.120 182.063 C 262.967 182.375,260.059 187.620,264.614 191.997 C 266.491 193.801,273.000 192.767,273.000 190.665 C 273.000 189.953,273.999 190.381,274.199 191.178 C 274.605 192.793,279.115 193.685,280.396 192.404 C 281.121 191.679,280.556 189.890,279.589 189.850 C 278.131 189.789,278.031 189.430,277.983 184.101 C 277.929 178.081,277.482 176.796,274.968 175.439 C 273.190 174.480,268.825 174.392,266.943 175.279 M308.833 174.895 C 305.828 175.574,304.504 177.139,304.502 180.015 C 304.499 183.080,305.694 184.255,309.809 185.235 C 310.922 185.501,312.133 185.793,312.500 185.886 C 312.867 185.978,313.359 186.066,313.595 186.082 C 314.670 186.155,315.683 187.600,315.279 188.486 C 314.376 190.467,309.072 190.337,307.985 188.306 C 307.666 187.709,307.413 187.653,305.894 187.841 C 303.583 188.127,303.344 188.422,304.195 189.933 C 307.135 195.155,320.256 193.393,319.832 187.833 C 319.804 187.467,319.755 186.773,319.724 186.292 C 319.598 184.361,316.835 182.434,313.333 181.835 C 310.076 181.278,308.667 180.553,308.667 179.437 C 308.667 177.409,314.379 177.236,314.884 179.249 C 315.075 180.009,315.190 180.045,316.960 179.878 C 317.990 179.781,319.018 179.694,319.245 179.684 C 319.847 179.658,318.716 177.361,317.611 176.366 C 315.999 174.916,311.831 174.217,308.833 174.895 M102.000 176.630 L 102.000 178.260 103.750 178.261 C 104.712 178.262,105.763 178.279,106.083 178.298 C 106.614 178.330,106.667 178.831,106.667 183.833 C 106.667 190.146,107.203 189.404,102.641 189.402 L 100.114 189.402 100.140 191.034 L 100.165 192.667 108.749 192.667 L 117.333 192.667 117.333 191.189 C 117.333 189.505,117.142 189.384,114.500 189.394 C 113.583 189.397,112.571 189.385,112.250 189.367 C 111.714 189.336,111.667 188.757,111.667 182.167 L 111.667 175.000 106.833 175.000 L 102.000 175.000 102.000 176.630 M161.579 175.250 C 161.264 175.872,161.589 188.288,161.955 189.574 C 163.126 193.701,170.500 194.111,172.012 190.134 C 172.420 189.063,172.726 189.120,172.638 190.250 C 172.449 192.662,172.454 192.667,174.950 192.667 L 177.234 192.667 177.302 183.833 L 177.370 175.000 174.852 175.000 L 172.333 175.000 172.325 180.083 C 172.314 187.435,171.604 189.349,168.898 189.323 C 166.676 189.301,166.393 188.345,166.359 180.750 L 166.333 175.000 164.020 175.000 C 162.747 175.000,161.649 175.112,161.579 175.250 M191.744 178.417 C 194.016 180.178,193.721 188.488,191.353 189.390 C 188.518 190.471,186.667 187.874,186.852 183.074 C 187.005 179.092,189.522 176.695,191.744 178.417 M273.326 185.457 C 273.301 187.924,270.956 190.063,268.855 189.535 C 267.360 189.160,267.196 186.276,268.620 185.412 C 270.125 184.499,273.336 184.530,273.326 185.457 M181.556 220.667 C 178.415 222.243,178.514 221.614,178.408 240.583 L 178.315 257.000 175.908 257.000 L 173.500 257.000 173.532 260.250 C 173.613 268.312,174.839 269.226,185.361 269.070 L 191.889 268.973 192.439 267.820 L 192.989 266.667 186.245 266.642 C 180.321 266.620,177.967 266.508,177.837 266.242 C 177.817 266.201,177.419 265.696,176.954 265.122 C 176.263 264.269,176.094 263.672,176.036 261.872 L 175.965 259.667 186.154 259.667 L 196.343 259.667 197.004 258.583 C 197.367 257.987,197.665 257.387,197.665 257.250 C 197.666 257.112,193.917 257.000,189.333 257.000 L 181.000 257.000 181.011 240.750 C 181.023 222.872,180.926 223.720,183.067 222.765 C 183.907 222.389,210.667 222.085,210.667 222.451 C 210.667 222.523,210.398 223.238,210.070 224.041 C 209.549 225.316,209.353 229.236,209.639 232.667 C 209.654 232.850,210.192 233.000,210.833 233.000 L 212.000 233.000 212.000 231.333 L 212.000 229.667 217.000 229.667 L 222.000 229.667 222.000 227.894 C 222.000 224.127,220.292 220.970,217.895 220.308 C 217.213 220.120,209.622 219.950,199.965 219.907 L 183.217 219.833 181.556 220.667 M218.252 223.810 C 218.930 224.550,219.309 225.251,219.193 225.551 C 219.087 225.828,219.000 226.267,219.000 226.527 C 219.000 226.906,218.295 227.000,215.473 227.000 L 211.946 227.000 212.104 225.827 C 212.294 224.412,213.299 222.963,214.339 222.603 C 215.674 222.140,217.135 222.591,218.252 223.810 M184.857 229.857 C 184.145 230.570,184.199 231.238,185.004 231.669 C 186.316 232.371,187.465 230.836,186.440 229.750 C 185.918 229.196,185.490 229.225,184.857 229.857 M188.547 229.727 C 187.716 230.192,187.850 231.550,188.750 231.785 C 189.662 232.024,190.788 231.037,190.490 230.261 C 190.234 229.594,189.262 229.327,188.547 229.727 M192.278 229.585 C 190.821 229.899,191.442 232.110,192.939 231.937 C 193.669 231.852,193.852 231.642,193.935 230.794 C 194.040 229.714,193.502 229.321,192.278 229.585 M195.411 230.255 C 194.925 231.648,196.255 232.612,197.267 231.600 C 197.867 230.999,197.749 230.067,197.022 229.678 C 196.039 229.152,195.760 229.252,195.411 230.255 M198.849 229.729 C 198.769 229.970,198.641 230.917,198.564 231.833 C 198.039 238.089,193.519 242.692,186.888 243.722 L 184.333 244.120 184.333 245.250 L 184.333 246.380 186.417 246.296 C 194.307 245.975,200.975 239.360,201.124 231.706 L 201.167 229.500 200.081 229.395 C 199.403 229.330,198.941 229.455,198.849 229.729 M202.857 229.857 C 202.145 230.570,202.199 231.238,203.004 231.669 C 204.316 232.371,205.465 230.836,204.440 229.750 C 203.918 229.196,203.490 229.225,202.857 229.857 M184.733 233.400 C 184.133 234.001,184.251 234.933,184.978 235.322 C 185.961 235.848,186.240 235.748,186.589 234.745 C 187.075 233.352,185.745 232.388,184.733 233.400 M189.365 234.795 C 188.704 235.591,189.487 236.733,190.606 236.603 C 191.909 236.453,191.937 234.551,190.638 234.400 C 190.164 234.345,189.591 234.523,189.365 234.795 M203.928 235.917 C 203.377 236.550,203.500 237.344,204.216 237.767 C 204.560 237.970,204.667 239.110,204.667 242.575 L 204.667 247.117 199.484 257.398 C 193.123 270.013,192.798 271.620,196.097 274.136 L 197.202 274.979 210.356 275.011 C 224.236 275.045,224.607 275.008,226.043 273.450 C 228.528 270.754,228.490 270.599,222.333 258.323 L 217.000 247.689 217.000 242.880 C 217.000 238.913,217.088 238.038,217.500 237.879 C 218.176 237.620,218.155 235.797,217.473 235.536 C 216.069 234.997,204.445 235.324,203.928 235.917 M184.488 237.019 C 184.120 237.615,184.624 238.911,185.293 239.086 C 186.097 239.296,186.518 239.023,186.804 238.104 C 187.138 237.035,185.075 236.069,184.488 237.019 M192.869 237.194 C 192.511 238.128,192.650 238.552,193.432 238.908 C 194.775 239.520,195.948 238.081,194.933 237.067 C 194.362 236.495,193.107 236.573,192.869 237.194 M214.333 242.979 L 214.333 247.958 215.662 250.396 C 216.393 251.736,216.993 252.946,216.995 253.083 C 216.998 253.221,214.229 253.333,210.842 253.333 L 204.683 253.333 205.923 250.750 L 207.162 248.167 207.264 243.083 L 207.366 238.000 210.850 238.000 L 214.333 238.000 214.333 242.979 M184.721 240.626 C 183.945 241.118,184.390 242.487,185.362 242.600 C 186.461 242.728,187.014 242.072,186.639 241.083 C 186.349 240.317,185.520 240.120,184.721 240.626 M198.992 241.843 C 198.668 242.233,198.657 242.547,198.944 243.177 C 199.399 244.175,200.504 244.260,201.000 243.333 C 201.757 241.919,200.007 240.620,198.992 241.843 M184.857 247.857 C 184.145 248.570,184.199 249.238,185.004 249.669 C 186.316 250.371,187.465 248.836,186.440 247.750 C 185.918 247.196,185.490 247.225,184.857 247.857 M184.733 251.400 C 184.133 252.001,184.251 252.933,184.978 253.322 C 185.961 253.848,186.240 253.748,186.589 252.745 C 187.075 251.352,185.745 250.388,184.733 251.400 M221.754 262.502 C 225.135 269.274,225.446 270.375,224.363 271.713 L 223.726 272.500 211.201 272.579 C 194.009 272.686,194.695 273.267,199.851 262.965 L 203.336 256.000 210.922 256.000 L 218.508 256.000 221.754 262.502 M207.368 261.124 C 206.981 261.591,207.201 262.665,207.763 263.042 C 208.356 263.441,209.342 262.916,209.549 262.091 C 209.866 260.827,208.220 260.098,207.368 261.124 M214.083 265.740 C 213.671 265.939,213.322 266.266,213.308 266.468 C 213.294 266.669,213.233 267.087,213.174 267.397 C 212.914 268.742,214.919 269.705,216.132 268.817 C 218.062 267.406,216.255 264.693,214.083 265.740 " stroke="none" fill="#ececec" fill-rule="evenodd"></path><path id="path1" d="M191.917 219.916 C 196.362 219.969,203.637 219.969,208.083 219.916 C 212.529 219.864,208.892 219.821,200.000 219.821 C 191.108 219.821,187.471 219.864,191.917 219.916 M209.417 232.667 C 209.505 232.993,210.005 233.181,210.859 233.209 C 212.112 233.250,212.118 233.245,211.003 233.099 C 210.363 233.015,209.714 232.770,209.561 232.556 C 209.371 232.291,209.325 232.326,209.417 232.667 M184.750 243.896 C 185.071 243.980,185.596 243.980,185.917 243.896 C 186.237 243.813,185.975 243.744,185.333 243.744 C 184.692 243.744,184.429 243.813,184.750 243.896 M182.434 269.249 C 184.231 269.309,187.081 269.308,188.767 269.248 C 190.454 269.188,188.983 269.139,185.500 269.139 C 182.017 269.139,180.637 269.189,182.434 269.249 M204.083 275.250 C 207.521 275.304,213.146 275.304,216.583 275.250 C 220.021 275.195,217.208 275.151,210.333 275.151 C 203.458 275.151,200.646 275.195,204.083 275.250 " stroke="none" fill="#f0ecec" fill-rule="evenodd"></path><path id="path2" d="M191.917 219.916 C 196.362 219.969,203.637 219.969,208.083 219.916 C 212.529 219.864,208.892 219.821,200.000 219.821 C 191.108 219.821,187.471 219.864,191.917 219.916 M209.417 232.667 C 209.505 232.993,210.005 233.181,210.859 233.209 C 212.112 233.250,212.118 233.245,211.003 233.099 C 210.363 233.015,209.714 232.770,209.561 232.556 C 209.371 232.291,209.325 232.326,209.417 232.667 M184.750 243.896 C 185.071 243.980,185.596 243.980,185.917 243.896 C 186.237 243.813,185.975 243.744,185.333 243.744 C 184.692 243.744,184.429 243.813,184.750 243.896 M182.434 269.249 C 184.231 269.309,187.081 269.308,188.767 269.248 C 190.454 269.188,188.983 269.139,185.500 269.139 C 182.017 269.139,180.637 269.189,182.434 269.249 M204.083 275.250 C 207.521 275.304,213.146 275.304,216.583 275.250 C 220.021 275.195,217.208 275.151,210.333 275.151 C 203.458 275.151,200.646 275.195,204.083 275.250 " stroke="none" fill="#f0ecec" fill-rule="evenodd"></path><path id="path3" d="M191.917 219.916 C 196.362 219.969,203.637 219.969,208.083 219.916 C 212.529 219.864,208.892 219.821,200.000 219.821 C 191.108 219.821,187.471 219.864,191.917 219.916 M209.417 232.667 C 209.505 232.993,210.005 233.181,210.859 233.209 C 212.112 233.250,212.118 233.245,211.003 233.099 C 210.363 233.015,209.714 232.770,209.561 232.556 C 209.371 232.291,209.325 232.326,209.417 232.667 M184.750 243.896 C 185.071 243.980,185.596 243.980,185.917 243.896 C 186.237 243.813,185.975 243.744,185.333 243.744 C 184.692 243.744,184.429 243.813,184.750 243.896 M182.434 269.249 C 184.231 269.309,187.081 269.308,188.767 269.248 C 190.454 269.188,188.983 269.139,185.500 269.139 C 182.017 269.139,180.637 269.189,182.434 269.249 M204.083 275.250 C 207.521 275.304,213.146 275.304,216.583 275.250 C 220.021 275.195,217.208 275.151,210.333 275.151 C 203.458 275.151,200.646 275.195,204.083 275.250 " stroke="none" fill="#f0ecec" fill-rule="evenodd"></path><path id="path4" d="M191.917 219.916 C 196.362 219.969,203.637 219.969,208.083 219.916 C 212.529 219.864,208.892 219.821,200.000 219.821 C 191.108 219.821,187.471 219.864,191.917 219.916 M209.417 232.667 C 209.505 232.993,210.005 233.181,210.859 233.209 C 212.112 233.250,212.118 233.245,211.003 233.099 C 210.363 233.015,209.714 232.770,209.561 232.556 C 209.371 232.291,209.325 232.326,209.417 232.667 M184.750 243.896 C 185.071 243.980,185.596 243.980,185.917 243.896 C 186.237 243.813,185.975 243.744,185.333 243.744 C 184.692 243.744,184.429 243.813,184.750 243.896 M182.434 269.249 C 184.231 269.309,187.081 269.308,188.767 269.248 C 190.454 269.188,188.983 269.139,185.500 269.139 C 182.017 269.139,180.637 269.189,182.434 269.249 M204.083 275.250 C 207.521 275.304,213.146 275.304,216.583 275.250 C 220.021 275.195,217.208 275.151,210.333 275.151 C 203.458 275.151,200.646 275.195,204.083 275.250 " stroke="none" fill="#f0ecec" fill-rule="evenodd"></path></g></svg>